<svg xmlns="http://www.w3.org/2000/svg" width="128" height="128" viewBox="0 0 128 128">
  <g fill="none" stroke-width="8" stroke-linecap="round" stroke-linejoin="round">
    <path d="M50.96 106.00 L50.96 50.00 A5.60 5.60 0 0 1 56.56 44.40 L63.28 44.40 A13.44 13.44 0 0 1 72.78 67.34 A22.40 22.40 0 0 0 72.78 99.02 L90.21 116.45" stroke="#22D3B6"/>
    <path d="M42.00 106.00 L42.00 50.00 A14.56 14.56 0 0 1 56.56 35.44 L63.28 35.44 A22.40 22.40 0 0 1 79.12 73.68 A13.44 13.44 0 0 0 79.12 92.69 L96.54 110.11" stroke="#FFB43C"/>
    <path d="M33.04 106.00 L33.04 50.00 A23.52 23.52 0 0 1 56.56 26.48 L63.28 26.48 A31.36 31.36 0 0 1 85.45 80.01 A4.48 4.48 0 0 0 85.45 86.35 L102.88 103.77" stroke="#FF4F5E"/>
  </g>
  <!-- Muted badge: a slashed mic, so the state is a shape and not only a colour. -->
  <circle cx="98" cy="98" r="28" fill="#da4453" stroke="#fcfcfc" stroke-width="4"/>
  <rect x="91" y="78" width="14" height="24" rx="7" fill="#fcfcfc"/>
  <path d="M84 96 a14 14 0 0 0 28 0" fill="none" stroke="#fcfcfc" stroke-width="4" stroke-linecap="round"/>
  <line x1="98" y1="110" x2="98" y2="117" stroke="#fcfcfc" stroke-width="4" stroke-linecap="round"/>
  <line x1="80" y1="80" x2="116" y2="116" stroke="#fcfcfc" stroke-width="7" stroke-linecap="round"/>
  <line x1="80" y1="80" x2="116" y2="116" stroke="#da4453" stroke-width="3" stroke-linecap="round"/>
</svg>
